<svg width="26" height="22" viewBox="0 0 26 22" fill="none" xmlns="http://www.w3.org/2000/svg">
<path d="M3 8.5C1.61929 8.5 0.5 9.61929 0.5 11C0.5 12.3807 1.61929 13.5 3 13.5L3 8.5ZM23 13.5C24.3807 13.5 25.5 12.3807 25.5 11C25.5 9.61929 24.3807 8.5 23 8.5L23 13.5ZM3 13.5L23 13.5L23 8.5L3 8.5L3 13.5Z" fill="white"/>
<path d="M3 16.5C1.61929 16.5 0.5 17.6193 0.5 19C0.5 20.3807 1.61929 21.5 3 21.5L3 16.5ZM23 21.5C24.3807 21.5 25.5 20.3807 25.5 19C25.5 17.6193 24.3807 16.5 23 16.5L23 21.5ZM3 21.5L23 21.5L23 16.5L3 16.5L3 21.5Z" fill="white"/>
<path d="M3 0.5C1.61929 0.5 0.5 1.61929 0.5 3C0.5 4.38071 1.61929 5.5 3 5.5L3 0.5ZM23 5.5C24.3807 5.5 25.5 4.38071 25.5 3C25.5 1.61929 24.3807 0.499998 23 0.499998L23 5.5ZM3 5.5L23 5.5L23 0.499998L3 0.5L3 5.5Z" fill="white"/>
</svg>
