<svg width="56" height="50" viewBox="0 0 56 50" fill="none" xmlns="http://www.w3.org/2000/svg">
<path d="M55.3217 45.1225L43.1107 30.1784C41.3917 28.1406 40.0165 27.6911 38.0752 27.5748C36.1968 27.4645 34.4342 28.0914 32.8493 29.4292C30.5756 31.3471 28.2836 34.2467 27.7575 34.9432L26.6504 36.2833C26.6356 36.3001 26.6207 36.3169 26.6069 36.3349L24.6025 38.8473L19.1234 45.8693C18.7367 46.3628 18.2508 46.7611 17.7001 47.0357C17.1493 47.3102 16.5475 47.4543 15.9375 47.4575L4.96199 47.5163C4.80495 47.5186 4.65072 47.4726 4.51841 47.3841C4.38612 47.2956 4.28157 47.1684 4.21775 47.0183C4.15393 46.8681 4.13364 46.7017 4.15939 46.5397C4.18514 46.3777 4.25581 46.2271 4.36263 46.1067L18.4197 30.0046L18.4484 29.971L21.9243 26.333C22.0366 26.2173 22.122 26.0762 22.1741 25.9205C22.2261 25.7649 22.2434 25.5988 22.2245 25.4351C22.1831 25.1036 22.0651 24.7876 21.8807 24.5145C21.8658 24.4882 21.2527 23.7198 21.2275 23.6875L18.2639 20.029C18.2557 20.017 18.2465 20.0058 18.2364 19.9955L4.07154 3.77352C3.97481 3.66293 3.91102 3.52523 3.88796 3.37729C3.8649 3.22936 3.88357 3.0776 3.94171 2.9406C3.99984 2.8036 4.0949 2.6873 4.21526 2.60594C4.33561 2.52458 4.47603 2.48169 4.61934 2.48252L16.1128 2.54485C16.6093 2.54735 17.0992 2.66446 17.5476 2.88782C17.9958 3.11119 18.3915 3.43531 18.7062 3.83705L26.27 13.4901L26.2643 13.4925L27.2063 14.8231L27.283 14.9238C27.8893 15.6969 30.0714 18.3868 32.6533 20.5661C34.1213 21.8043 35.7396 22.4324 37.4666 22.4324C37.6041 22.4324 37.7439 22.4324 37.8838 22.4204C38.8504 22.3665 39.7962 22.1066 40.6633 21.6566C41.5304 21.2066 42.3005 20.5761 42.9262 19.8037L55.1337 4.87751C55.4849 4.45073 55.7113 3.92726 55.7859 3.36957C55.8604 2.81188 55.78 2.24353 55.5542 1.73234C55.3284 1.22115 54.9667 0.788722 54.5123 0.486655C54.058 0.184589 53.5301 0.0256458 52.9918 0.0287951L38.5049 0.0671542C38.2696 0.0674858 38.037 0.119761 37.8223 0.220562C37.6077 0.321363 37.4158 0.46842 37.2592 0.652118L27.9077 11.5746C27.9027 11.5807 27.8965 11.5856 27.8896 11.5889C27.8827 11.5922 27.8752 11.594 27.8675 11.594C27.8599 11.594 27.8524 11.5922 27.8455 11.5889C27.8385 11.5856 27.8324 11.5807 27.8274 11.5746L19.8121 1.35455C19.5023 0.959351 19.1129 0.640482 18.6718 0.420654C18.2306 0.200825 17.7486 0.0854467 17.2599 0.0827381L1.91816 2.76006e-05C1.54725 -0.00201231 1.18381 0.109063 0.872304 0.319667C0.560801 0.530272 0.314733 0.831276 0.164203 1.18585C0.0136727 1.54043 -0.0347933 1.93321 0.0247359 2.31615C0.0842649 2.69908 0.249207 3.05556 0.499384 3.34199L16.9712 22.2095C17.0858 22.3413 18.8151 24.433 19.3125 25.0647C19.3343 25.0923 19.5417 25.3501 19.5176 25.3716C18.8919 25.8655 17.2657 27.6671 17.1534 27.7954L0.707963 46.6317C0.455721 46.9204 0.28941 47.2796 0.22938 47.6656C0.16935 48.0517 0.218206 48.4476 0.369969 48.805C0.521732 49.1624 0.769817 49.4658 1.08387 49.6781C1.39792 49.8903 1.7643 50.0021 2.1382 50L17.0583 49.9197C17.6683 49.9162 18.27 49.772 18.8207 49.4975C19.3713 49.2229 19.8574 48.8248 20.2442 48.3314L21.5747 46.6005C21.5797 46.5937 21.5861 46.5882 21.5935 46.5845C21.6008 46.5807 21.6089 46.5788 21.6172 46.5789L35.1723 46.6988C35.1797 46.6988 35.1871 46.7005 35.1938 46.7038C35.2006 46.7071 35.2065 46.7119 35.2112 46.718L37.4449 49.3551L37.4998 49.3036C37.4866 49.3193 37.4793 49.3395 37.4793 49.3605C37.4793 49.3814 37.4866 49.4017 37.4998 49.4174C37.6563 49.5811 37.8421 49.711 38.0467 49.7994C38.2512 49.8879 38.4704 49.9333 38.6917 49.9329L53.1797 49.9664C53.5857 49.9727 53.9879 49.8852 54.3578 49.7102C54.7276 49.5351 55.056 49.2767 55.3193 48.9535C56.2453 47.7752 56.2075 46.2073 55.3217 45.1225ZM38.145 3.31442C38.356 3.0677 38.6141 2.87018 38.9028 2.7347C39.1915 2.59922 39.5042 2.52882 39.8205 2.52807L52.9998 2.49691C53.0859 2.49669 53.1703 2.5223 53.2429 2.57072C53.3156 2.61914 53.3734 2.68833 53.4096 2.77008C53.4458 2.85184 53.4588 2.94273 53.4471 3.03198C53.4354 3.12124 53.3995 3.20511 53.3436 3.27366L41.1362 18.2046C40.7161 18.7239 40.199 19.1479 39.6167 19.4507C39.0344 19.7535 38.3991 19.9287 37.7497 19.9655C36.4776 20.0398 35.2605 19.6058 34.1386 18.6541C31.9967 16.8465 30.1378 14.6457 29.3505 13.6699C29.342 13.6599 29.3372 13.6468 29.3372 13.6334C29.3372 13.6199 29.342 13.6069 29.3505 13.5968L38.145 3.31442ZM23.531 44.0592L27.9833 38.2624C27.9882 38.2561 27.9944 38.251 28.0015 38.2476C28.0085 38.2441 28.0162 38.2423 28.024 38.2423C28.0317 38.2423 28.0394 38.2441 28.0465 38.2476C28.0535 38.251 28.0597 38.2561 28.0647 38.2624L32.965 44.0592C32.972 44.0672 32.9766 44.0771 32.9782 44.0878C32.9798 44.0985 32.9784 44.1094 32.9741 44.1192C32.9698 44.129 32.9629 44.1374 32.9542 44.1431C32.9454 44.1488 32.9352 44.1518 32.9249 44.1516H23.5722C23.5618 44.1521 23.5515 44.1493 23.5426 44.1437C23.5336 44.138 23.5265 44.1297 23.5221 44.1198C23.5177 44.11 23.5162 44.0989 23.5178 44.0881C23.5193 44.0773 23.524 44.0673 23.531 44.0592ZM53.5934 47.2322C53.5595 47.3153 53.5024 47.3858 53.4296 47.4345C53.3569 47.4833 53.2718 47.508 53.1855 47.5055L40.3294 47.6745C39.9707 47.6793 39.6151 47.6045 39.286 47.455C38.9569 47.3057 38.6618 47.0851 38.4201 46.8079L29.4559 36.5374V36.4451C30.1859 35.5329 32.1055 33.2314 34.3311 31.3531C35.4519 30.4073 36.6701 29.9674 37.9422 30.0417C39.3083 30.1233 40.0887 30.3246 41.3276 31.7978L53.5281 46.7263C53.5863 46.7936 53.6236 46.8777 53.6353 46.9675C53.6469 47.0573 53.6323 47.1488 53.5934 47.2298V47.2322Z" fill="#FF3A51"/>
</svg>
