<svg width="267" height="51" viewBox="0 0 267 51" fill="none" xmlns="http://www.w3.org/2000/svg">
<g filter="url(#filter0_d_480_231)">
<path d="M62.802 20.9258C62.6792 20.9258 62.5749 20.888 62.489 20.8124C62.4153 20.7368 62.3785 20.636 62.3785 20.5101V8.13371C62.3785 7.99515 62.4153 7.88807 62.489 7.81249C62.5749 7.73691 62.6792 7.69912 62.802 7.69912H63.2622C63.4463 7.69912 63.5752 7.781 63.6488 7.94476L67.828 16.2964L72.0257 7.94476C72.1116 7.781 72.2404 7.69912 72.4123 7.69912H72.8541C72.9891 7.69912 73.0935 7.73691 73.1671 7.81249C73.2408 7.88807 73.2776 7.99515 73.2776 8.13371V20.5101C73.2776 20.636 73.2346 20.7368 73.1487 20.8124C73.0751 20.888 72.9769 20.9258 72.8541 20.9258H72.5227C72.4 20.9258 72.3018 20.888 72.2282 20.8124C72.1545 20.7368 72.1177 20.636 72.1177 20.5101V10.2689L68.6013 17.3735C68.4908 17.6254 68.3006 17.7514 68.0306 17.7514H67.6255C67.3555 17.7514 67.1653 17.6254 67.0548 17.3735L63.5384 10.2689V20.5101C63.5384 20.636 63.5016 20.7368 63.4279 20.8124C63.3543 20.888 63.2561 20.9258 63.1334 20.9258H62.802Z" fill="white"/>
<path d="M80.1497 21.1147C78.8733 21.1147 77.8791 20.7179 77.1672 19.9243C76.4676 19.1181 76.0994 18.0789 76.0626 16.8066L76.0442 16.013L76.0626 15.2194C76.0994 13.9471 76.4676 12.9142 77.1672 12.1206C77.8791 11.3144 78.8733 10.9113 80.1497 10.9113C81.4262 10.9113 82.4142 11.3144 83.1138 12.1206C83.8257 12.9142 84.2001 13.9471 84.2369 15.2194C84.2492 15.3454 84.2553 15.6099 84.2553 16.013C84.2553 16.4161 84.2492 16.6806 84.2369 16.8066C84.2001 18.0789 83.8257 19.1181 83.1138 19.9243C82.4142 20.7179 81.4262 21.1147 80.1497 21.1147ZM80.1497 20.0188C81.0212 20.0188 81.7208 19.7354 82.2486 19.1685C82.7886 18.5891 83.077 17.7703 83.1138 16.7121C83.1261 16.5862 83.1323 16.3531 83.1323 16.013C83.1323 15.6729 83.1261 15.4399 83.1138 15.3139C83.077 14.2558 82.7886 13.4433 82.2486 12.8764C81.7208 12.297 81.0212 12.0072 80.1497 12.0072C79.2783 12.0072 78.5726 12.297 78.0325 12.8764C77.5048 13.4433 77.2225 14.2558 77.1856 15.3139L77.1672 16.013L77.1856 16.7121C77.2225 17.7703 77.5048 18.5891 78.0325 19.1685C78.5726 19.7354 79.2783 20.0188 80.1497 20.0188Z" fill="white"/>
<path d="M94.6686 15.7863C94.6809 15.9122 94.687 16.1012 94.687 16.3531C94.687 16.5673 94.6809 16.7184 94.6686 16.8066C94.6318 18.0789 94.2575 19.1181 93.5456 19.9243C92.846 20.7179 91.858 21.1147 90.5815 21.1147C89.305 21.1147 88.3109 20.7179 87.599 19.9243C86.8871 19.1181 86.5128 18.0789 86.4759 16.8066V14.5581C86.4759 12.7441 86.6846 11.3837 87.1019 10.4767C87.5315 9.56975 88.139 8.92101 88.9245 8.53051C89.7101 8.14001 90.962 7.70542 92.6803 7.22674C92.8521 7.18895 93.1099 7.11967 93.4535 7.01889L93.5456 7C93.6315 7 93.7051 7.03149 93.7665 7.09448C93.8402 7.14486 93.8893 7.21415 93.9138 7.30232L93.9874 7.66133C93.9997 7.68653 94.0059 7.72432 94.0059 7.7747C94.0059 7.86288 93.9813 7.93846 93.9322 8.00145C93.8831 8.05183 93.8156 8.08962 93.7297 8.11482L92.533 8.43604C91.1829 8.80134 90.201 9.12256 89.5873 9.39969C88.9736 9.66422 88.4888 10.0862 88.1329 10.6657C87.7892 11.2451 87.6051 12.1017 87.5806 13.2354C87.8874 12.7063 88.3293 12.2844 88.9061 11.9694C89.483 11.6419 90.1028 11.4782 90.7656 11.4782C91.9561 11.4782 92.8951 11.8813 93.5824 12.6875C94.2697 13.4936 94.6318 14.5266 94.6686 15.7863ZM93.5456 16.7121C93.5579 16.6366 93.564 16.5169 93.564 16.3531C93.564 16.1642 93.5579 16.0067 93.5456 15.8807C93.5088 14.8352 93.2326 14.0227 92.7171 13.4433C92.2016 12.8638 91.5511 12.5741 90.7656 12.5741C89.8819 12.5741 89.1455 12.8638 88.5563 13.4433C87.9672 14.0227 87.6542 14.8352 87.6174 15.8807L87.599 16.3531L87.6174 16.7121C87.6542 17.7703 87.9365 18.5891 88.4643 19.1685C89.0043 19.7354 89.7101 20.0188 90.5815 20.0188C91.4529 20.0188 92.1525 19.7354 92.6803 19.1685C93.2203 18.5891 93.5088 17.7703 93.5456 16.7121Z" fill="white"/>
<path d="M104.838 11.1003C104.937 11.1003 105.022 11.138 105.096 11.2136C105.17 11.2892 105.207 11.3711 105.207 11.4593V20.5101C105.207 20.636 105.17 20.7368 105.096 20.8124C105.022 20.888 104.924 20.9258 104.801 20.9258H104.489C104.366 20.9258 104.268 20.888 104.194 20.8124C104.12 20.7368 104.083 20.636 104.083 20.5101V13.0276L98.413 20.6423C98.278 20.8313 98.1185 20.9258 97.9343 20.9258H97.5845C97.4864 20.9258 97.4004 20.888 97.3268 20.8124C97.2532 20.7368 97.2163 20.6486 97.2163 20.5479V11.516C97.2163 11.39 97.2532 11.2892 97.3268 11.2136C97.4004 11.138 97.4986 11.1003 97.6214 11.1003H97.9343C98.0571 11.1003 98.1553 11.138 98.2289 11.2136C98.3026 11.2892 98.3394 11.39 98.3394 11.516V18.9985L104.01 11.3837C104.145 11.1947 104.304 11.1003 104.489 11.1003H104.838Z" fill="white"/>
<path d="M107.576 20.9258C107.453 20.9258 107.349 20.888 107.263 20.8124C107.189 20.7242 107.153 20.6171 107.153 20.4912V20.1888C107.153 20.0755 107.183 19.981 107.245 19.9054C107.318 19.8298 107.41 19.792 107.521 19.792C108.147 19.792 108.625 19.326 108.957 18.3938C109.288 17.4616 109.454 15.9437 109.454 13.8401V11.516C109.454 11.39 109.491 11.2892 109.564 11.2136C109.638 11.138 109.736 11.1003 109.859 11.1003H115.124C115.247 11.1003 115.345 11.138 115.419 11.2136C115.493 11.2892 115.529 11.39 115.529 11.516V20.5101C115.529 20.636 115.493 20.7368 115.419 20.8124C115.345 20.888 115.247 20.9258 115.124 20.9258H114.811C114.689 20.9258 114.59 20.888 114.517 20.8124C114.443 20.7368 114.406 20.636 114.406 20.5101V12.1962H110.577V13.9723C110.577 18.608 109.577 20.9258 107.576 20.9258Z" fill="white"/>
<path d="M118.909 20.9258C118.786 20.9258 118.688 20.888 118.614 20.8124C118.54 20.7368 118.504 20.636 118.504 20.5101V11.516C118.504 11.39 118.54 11.2892 118.614 11.2136C118.688 11.138 118.786 11.1003 118.909 11.1003H119.222C119.344 11.1003 119.442 11.138 119.516 11.2136C119.59 11.2892 119.627 11.39 119.627 11.516V14.388H121.836C124.156 14.388 125.315 15.5028 125.315 17.7325C125.315 18.841 125.009 19.6535 124.395 20.17C123.794 20.6738 122.848 20.9258 121.56 20.9258H118.909ZM121.725 19.8298C122.597 19.8298 123.223 19.6724 123.603 19.3575C123.996 19.0425 124.192 18.5009 124.192 17.7325C124.192 16.9641 123.996 16.3972 123.603 16.0319C123.223 15.6666 122.597 15.4839 121.725 15.4839H119.627V19.8298H121.725Z" fill="white"/>
<path d="M127.664 20.9258C127.542 20.9258 127.443 20.888 127.37 20.8124C127.296 20.7368 127.259 20.636 127.259 20.5101V11.516C127.259 11.39 127.296 11.2892 127.37 11.2136C127.443 11.138 127.542 11.1003 127.664 11.1003H127.977C128.1 11.1003 128.198 11.138 128.272 11.2136C128.346 11.2892 128.382 11.39 128.382 11.516V15.3517H134.126V11.516C134.126 11.39 134.163 11.2892 134.237 11.2136C134.311 11.138 134.409 11.1003 134.532 11.1003H134.845C134.967 11.1003 135.065 11.138 135.139 11.2136C135.213 11.2892 135.25 11.39 135.25 11.516V20.5101C135.25 20.636 135.213 20.7368 135.139 20.8124C135.065 20.888 134.967 20.9258 134.845 20.9258H134.532C134.409 20.9258 134.311 20.888 134.237 20.8124C134.163 20.7368 134.126 20.636 134.126 20.5101V16.4476H128.382V20.5101C128.382 20.636 128.346 20.7368 128.272 20.8124C128.198 20.888 128.1 20.9258 127.977 20.9258H127.664Z" fill="white"/>
<path d="M138.632 20.9258C138.509 20.9258 138.411 20.888 138.337 20.8124C138.263 20.7368 138.227 20.636 138.227 20.5101V11.516C138.227 11.39 138.263 11.2892 138.337 11.2136C138.411 11.138 138.509 11.1003 138.632 11.1003H138.945C139.067 11.1003 139.166 11.138 139.239 11.2136C139.313 11.2892 139.35 11.39 139.35 11.516V14.388H141.375C143.695 14.388 144.854 15.5028 144.854 17.7325C144.854 18.841 144.548 19.6535 143.934 20.17C143.332 20.6738 142.387 20.9258 141.099 20.9258H138.632ZM146.659 20.9258C146.536 20.9258 146.438 20.888 146.364 20.8124C146.29 20.7368 146.254 20.636 146.254 20.5101V11.516C146.254 11.39 146.29 11.2892 146.364 11.2136C146.438 11.138 146.536 11.1003 146.659 11.1003H146.972C147.094 11.1003 147.193 11.138 147.266 11.2136C147.34 11.2892 147.377 11.39 147.377 11.516V20.5101C147.377 20.636 147.34 20.7368 147.266 20.8124C147.193 20.888 147.094 20.9258 146.972 20.9258H146.659ZM141.264 19.8298C142.136 19.8298 142.762 19.6724 143.142 19.3575C143.535 19.0425 143.731 18.5009 143.731 17.7325C143.731 16.9641 143.535 16.3972 143.142 16.0319C142.762 15.6666 142.136 15.4839 141.264 15.4839H139.35V19.8298H141.264Z" fill="white"/>
<path d="M153.916 21.1147C152.75 21.1147 151.811 20.7242 151.099 19.9432C150.387 19.1496 149.982 18.0915 149.884 16.7688L149.865 16.013L149.884 15.2572C149.982 13.9471 150.381 12.8953 151.08 12.1017C151.792 11.3081 152.737 10.9113 153.916 10.9113C155.192 10.9113 156.186 11.3459 156.898 12.2151C157.622 13.0843 157.984 14.2747 157.984 15.7863V16.0697C157.984 16.1957 157.941 16.2964 157.856 16.372C157.782 16.4476 157.684 16.4854 157.561 16.4854H151.007V16.6743C151.031 17.2664 151.16 17.8207 151.393 18.3371C151.639 18.841 151.976 19.2504 152.406 19.5653C152.836 19.8676 153.339 20.0188 153.916 20.0188C154.591 20.0188 155.137 19.8865 155.554 19.622C155.984 19.3449 156.291 19.0677 156.475 18.7906C156.585 18.6394 156.665 18.545 156.714 18.5072C156.775 18.4694 156.88 18.4505 157.027 18.4505H157.322C157.432 18.4505 157.524 18.482 157.598 18.545C157.671 18.608 157.708 18.6898 157.708 18.7906C157.708 19.0551 157.543 19.3764 157.211 19.7543C156.892 20.1196 156.444 20.4408 155.867 20.7179C155.29 20.9824 154.64 21.1147 153.916 21.1147ZM156.861 15.4273V15.3517C156.861 14.3817 156.591 13.5818 156.051 12.952C155.524 12.3221 154.812 12.0072 153.916 12.0072C153.02 12.0072 152.308 12.3221 151.78 12.952C151.265 13.5818 151.007 14.3817 151.007 15.3517V15.4273H156.861Z" fill="white"/>
<path d="M167.737 21.1147C167.148 21.1147 166.601 20.9887 166.098 20.7368C165.595 20.4849 165.19 20.1448 164.883 19.7165C164.589 19.2882 164.441 18.8158 164.441 18.2993C164.441 17.4679 164.766 16.7877 165.417 16.2586C166.08 15.7296 166.97 15.3895 168.087 15.2383L170.995 14.8226V14.1613C170.995 13.4685 170.787 12.9394 170.369 12.5741C169.964 12.1962 169.338 12.0072 168.492 12.0072C167.866 12.0072 167.35 12.1332 166.945 12.3851C166.552 12.6371 166.301 12.9394 166.19 13.2921C166.141 13.4433 166.08 13.5503 166.006 13.6133C165.945 13.6637 165.859 13.6889 165.748 13.6889H165.491C165.38 13.6889 165.282 13.6511 165.196 13.5755C165.122 13.4874 165.086 13.3866 165.086 13.2732C165.086 12.9961 165.208 12.6749 165.454 12.3096C165.699 11.9316 166.08 11.6041 166.595 11.327C167.111 11.0499 167.743 10.9113 168.492 10.9113C169.805 10.9113 170.738 11.2325 171.29 11.875C171.842 12.5174 172.118 13.2984 172.118 14.218V20.5101C172.118 20.636 172.082 20.7368 172.008 20.8124C171.934 20.888 171.836 20.9258 171.713 20.9258H171.4C171.278 20.9258 171.179 20.888 171.106 20.8124C171.032 20.7368 170.995 20.636 170.995 20.5101V19.622C170.725 20.0377 170.326 20.3904 169.799 20.6801C169.283 20.9698 168.596 21.1147 167.737 21.1147ZM167.921 20.0188C168.817 20.0188 169.553 19.7165 170.13 19.1118C170.707 18.5072 170.995 17.638 170.995 16.5043V15.8618L168.62 16.202C167.614 16.3405 166.853 16.5799 166.338 16.92C165.822 17.2601 165.564 17.6884 165.564 18.2049C165.564 18.7843 165.797 19.2315 166.264 19.5464C166.743 19.8613 167.295 20.0188 167.921 20.0188Z" fill="white"/>
<path d="M182.302 20.4156C182.363 20.4912 182.394 20.573 182.394 20.6612C182.394 20.8376 182.277 20.9258 182.044 20.9258H181.565C181.381 20.9258 181.222 20.8376 181.087 20.6612L178.178 16.4854H176.153V20.5101C176.153 20.636 176.116 20.7368 176.042 20.8124C175.969 20.888 175.87 20.9258 175.748 20.9258H175.435C175.312 20.9258 175.214 20.888 175.14 20.8124C175.067 20.7368 175.03 20.636 175.03 20.5101V11.516C175.03 11.39 175.067 11.2892 175.14 11.2136C175.214 11.138 175.312 11.1003 175.435 11.1003H175.748C175.87 11.1003 175.969 11.138 176.042 11.2136C176.116 11.2892 176.153 11.39 176.153 11.516V15.3517H178.123L180.829 11.3837C180.964 11.1947 181.124 11.1003 181.308 11.1003H181.676C181.786 11.1003 181.872 11.1255 181.934 11.1758C182.007 11.2136 182.044 11.2766 182.044 11.3648C182.044 11.4152 182.013 11.4908 181.952 11.5915L179.098 15.7863L182.302 20.4156Z" fill="white"/>
<path d="M187.502 21.1147C186.226 21.1147 185.238 20.7368 184.538 19.981C183.839 19.2126 183.47 18.1419 183.434 16.7688L183.415 16.013L183.434 15.2572C183.47 13.8842 183.839 12.8197 184.538 12.0639C185.238 11.2955 186.226 10.9113 187.502 10.9113C188.312 10.9113 189 11.0625 189.564 11.3648C190.141 11.6545 190.571 12.0324 190.853 12.4985C191.135 12.952 191.289 13.4244 191.313 13.9156C191.326 14.029 191.289 14.1298 191.203 14.218C191.117 14.2935 191.019 14.3313 190.908 14.3313H190.651C190.528 14.3313 190.436 14.3061 190.374 14.2558C190.325 14.1928 190.27 14.0857 190.209 13.9345C189.963 13.2417 189.62 12.7504 189.178 12.4607C188.736 12.1584 188.177 12.0072 187.502 12.0072C186.619 12.0072 185.913 12.2844 185.385 12.8386C184.87 13.3803 184.593 14.218 184.557 15.3517L184.538 16.013L184.557 16.6743C184.593 17.8081 184.87 18.652 185.385 19.2063C185.913 19.748 186.619 20.0188 187.502 20.0188C188.177 20.0188 188.736 19.8739 189.178 19.5842C189.62 19.2819 189.963 18.7843 190.209 18.0915C190.27 17.9403 190.325 17.8395 190.374 17.7892C190.436 17.7262 190.528 17.6947 190.651 17.6947H190.908C191.019 17.6947 191.117 17.7388 191.203 17.8269C191.289 17.9025 191.326 17.997 191.313 18.1104C191.289 18.6017 191.135 19.0803 190.853 19.5464C190.571 19.9999 190.141 20.3778 189.564 20.6801C189 20.9698 188.312 21.1147 187.502 21.1147Z" fill="white"/>
<path d="M197.299 21.1147C196.133 21.1147 195.194 20.7242 194.482 19.9432C193.77 19.1496 193.365 18.0915 193.267 16.7688L193.249 16.013L193.267 15.2572C193.365 13.9471 193.764 12.8953 194.464 12.1017C195.176 11.3081 196.121 10.9113 197.299 10.9113C198.576 10.9113 199.57 11.3459 200.282 12.2151C201.006 13.0843 201.368 14.2747 201.368 15.7863V16.0697C201.368 16.1957 201.325 16.2964 201.239 16.372C201.165 16.4476 201.067 16.4854 200.944 16.4854H194.39V16.6743C194.415 17.2664 194.544 17.8207 194.777 18.3371C195.022 18.841 195.36 19.2504 195.79 19.5653C196.219 19.8676 196.722 20.0188 197.299 20.0188C197.974 20.0188 198.52 19.8865 198.938 19.622C199.367 19.3449 199.674 19.0677 199.858 18.7906C199.969 18.6394 200.048 18.545 200.098 18.5072C200.159 18.4694 200.263 18.4505 200.411 18.4505H200.705C200.816 18.4505 200.908 18.482 200.981 18.545C201.055 18.608 201.092 18.6898 201.092 18.7906C201.092 19.0551 200.926 19.3764 200.595 19.7543C200.276 20.1196 199.828 20.4408 199.251 20.7179C198.674 20.9824 198.023 21.1147 197.299 21.1147ZM200.245 15.4273V15.3517C200.245 14.3817 199.975 13.5818 199.435 12.952C198.907 12.3221 198.195 12.0072 197.299 12.0072C196.403 12.0072 195.691 12.3221 195.164 12.952C194.648 13.5818 194.39 14.3817 194.39 15.3517V15.4273H200.245Z" fill="white"/>
<path d="M207.423 21.1147C206.147 21.1147 205.159 20.7368 204.459 19.981C203.759 19.2126 203.391 18.1419 203.354 16.7688L203.336 16.013L203.354 15.2572C203.391 13.8842 203.759 12.8197 204.459 12.0639C205.159 11.2955 206.147 10.9113 207.423 10.9113C208.233 10.9113 208.921 11.0625 209.485 11.3648C210.062 11.6545 210.492 12.0324 210.774 12.4985C211.056 12.952 211.21 13.4244 211.234 13.9156C211.246 14.029 211.21 14.1298 211.124 14.218C211.038 14.2935 210.94 14.3313 210.829 14.3313H210.571C210.449 14.3313 210.357 14.3061 210.295 14.2558C210.246 14.1928 210.191 14.0857 210.129 13.9345C209.884 13.2417 209.54 12.7504 209.098 12.4607C208.657 12.1584 208.098 12.0072 207.423 12.0072C206.539 12.0072 205.834 12.2844 205.306 12.8386C204.79 13.3803 204.514 14.218 204.477 15.3517L204.459 16.013L204.477 16.6743C204.514 17.8081 204.79 18.652 205.306 19.2063C205.834 19.748 206.539 20.0188 207.423 20.0188C208.098 20.0188 208.657 19.8739 209.098 19.5842C209.54 19.2819 209.884 18.7843 210.129 18.0915C210.191 17.9403 210.246 17.8395 210.295 17.7892C210.357 17.7262 210.449 17.6947 210.571 17.6947H210.829C210.94 17.6947 211.038 17.7388 211.124 17.8269C211.21 17.9025 211.246 17.997 211.234 18.1104C211.21 18.6017 211.056 19.0803 210.774 19.5464C210.492 19.9999 210.062 20.3778 209.485 20.6801C208.921 20.9698 208.233 21.1147 207.423 21.1147Z" fill="white"/>
<path d="M217.294 21.1147C216.017 21.1147 215.029 20.7368 214.33 19.981C213.63 19.2126 213.262 18.1419 213.225 16.7688L213.206 16.013L213.225 15.2572C213.262 13.8842 213.63 12.8197 214.33 12.0639C215.029 11.2955 216.017 10.9113 217.294 10.9113C218.104 10.9113 218.791 11.0625 219.356 11.3648C219.932 11.6545 220.362 12.0324 220.644 12.4985C220.927 12.952 221.08 13.4244 221.105 13.9156C221.117 14.029 221.08 14.1298 220.994 14.218C220.908 14.2935 220.81 14.3313 220.7 14.3313H220.442C220.319 14.3313 220.227 14.3061 220.166 14.2558C220.117 14.1928 220.061 14.0857 220 13.9345C219.755 13.2417 219.411 12.7504 218.969 12.4607C218.527 12.1584 217.969 12.0072 217.294 12.0072C216.41 12.0072 215.704 12.2844 215.176 12.8386C214.661 13.3803 214.385 14.218 214.348 15.3517L214.33 16.013L214.348 16.6743C214.385 17.8081 214.661 18.652 215.176 19.2063C215.704 19.748 216.41 20.0188 217.294 20.0188C217.969 20.0188 218.527 19.8739 218.969 19.5842C219.411 19.2819 219.755 18.7843 220 18.0915C220.061 17.9403 220.117 17.8395 220.166 17.7892C220.227 17.7262 220.319 17.6947 220.442 17.6947H220.7C220.81 17.6947 220.908 17.7388 220.994 17.8269C221.08 17.9025 221.117 17.997 221.105 18.1104C221.08 18.6017 220.927 19.0803 220.644 19.5464C220.362 19.9999 219.932 20.3778 219.356 20.6801C218.791 20.9698 218.104 21.1147 217.294 21.1147Z" fill="white"/>
<path d="M230.846 11.1003C230.944 11.1003 231.03 11.138 231.104 11.2136C231.178 11.2892 231.214 11.3774 231.214 11.4782C231.214 11.5411 231.178 11.6671 231.104 11.8561L227.606 20.2833L227.348 20.9258C227.054 21.669 226.784 22.2736 226.538 22.7397C226.305 23.2184 226.004 23.6341 225.636 23.9868C225.28 24.3395 224.863 24.5158 224.384 24.5158H223.758C223.635 24.5158 223.537 24.4781 223.464 24.4025C223.39 24.3269 223.353 24.2261 223.353 24.1002V23.8356C223.353 23.7097 223.39 23.6089 223.464 23.5333C223.537 23.4577 223.635 23.4199 223.758 23.4199H224.182C224.476 23.4199 224.709 23.3569 224.881 23.231C225.065 23.105 225.231 22.9035 225.378 22.6263C225.526 22.3618 225.722 21.9335 225.967 21.3415L226.372 20.3589L222.801 11.8561C222.727 11.6671 222.69 11.5411 222.69 11.4782C222.69 11.3774 222.727 11.2892 222.801 11.2136C222.874 11.138 222.96 11.1003 223.059 11.1003H223.408C223.605 11.1003 223.746 11.1947 223.832 11.3837L226.98 18.904L230.091 11.3837C230.177 11.1947 230.318 11.1003 230.515 11.1003H230.846Z" fill="white"/>
<path d="M235.859 21.1147C235.27 21.1147 234.724 20.9887 234.221 20.7368C233.718 20.4849 233.313 20.1448 233.006 19.7165C232.711 19.2882 232.564 18.8158 232.564 18.2993C232.564 17.4679 232.889 16.7877 233.54 16.2586C234.202 15.7296 235.092 15.3895 236.209 15.2383L239.118 14.8226V14.1613C239.118 13.4685 238.909 12.9394 238.492 12.5741C238.087 12.1962 237.461 12.0072 236.614 12.0072C235.988 12.0072 235.473 12.1332 235.068 12.3851C234.675 12.6371 234.423 12.9394 234.313 13.2921C234.264 13.4433 234.202 13.5503 234.129 13.6133C234.067 13.6637 233.982 13.6889 233.871 13.6889H233.613C233.503 13.6889 233.405 13.6511 233.319 13.5755C233.245 13.4874 233.208 13.3866 233.208 13.2732C233.208 12.9961 233.331 12.6749 233.576 12.3096C233.822 11.9316 234.202 11.6041 234.718 11.327C235.233 11.0499 235.866 10.9113 236.614 10.9113C237.927 10.9113 238.86 11.2325 239.413 11.875C239.965 12.5174 240.241 13.2984 240.241 14.218V20.5101C240.241 20.636 240.204 20.7368 240.131 20.8124C240.057 20.888 239.959 20.9258 239.836 20.9258H239.523C239.4 20.9258 239.302 20.888 239.229 20.8124C239.155 20.7368 239.118 20.636 239.118 20.5101V19.622C238.848 20.0377 238.449 20.3904 237.921 20.6801C237.406 20.9698 236.719 21.1147 235.859 21.1147ZM236.043 20.0188C236.939 20.0188 237.676 19.7165 238.253 19.1118C238.83 18.5072 239.118 17.638 239.118 16.5043V15.8618L236.743 16.202C235.737 16.3405 234.976 16.5799 234.46 16.92C233.945 17.2601 233.687 17.6884 233.687 18.2049C233.687 18.7843 233.92 19.2315 234.387 19.5464C234.865 19.8613 235.418 20.0188 236.043 20.0188Z" fill="white"/>
<path d="M243.576 24.5158C243.453 24.5158 243.355 24.4781 243.281 24.4025C243.208 24.3269 243.171 24.2261 243.171 24.1002V11.516C243.171 11.39 243.208 11.2892 243.281 11.2136C243.355 11.138 243.453 11.1003 243.576 11.1003H243.889C244.012 11.1003 244.11 11.138 244.183 11.2136C244.257 11.2892 244.294 11.39 244.294 11.516V12.404C245.006 11.4089 246.037 10.9113 247.387 10.9113C248.712 10.9113 249.688 11.3459 250.314 12.2151C250.952 13.0717 251.29 14.1298 251.327 15.3895C251.339 15.5154 251.345 15.7233 251.345 16.013C251.345 16.3027 251.339 16.5106 251.327 16.6366C251.29 17.8962 250.952 18.9607 250.314 19.8298C249.688 20.6864 248.712 21.1147 247.387 21.1147C246.049 21.1147 245.018 20.6171 244.294 19.622V24.1002C244.294 24.2261 244.257 24.3269 244.183 24.4025C244.11 24.4781 244.012 24.5158 243.889 24.5158H243.576ZM247.276 20.0188C248.271 20.0188 248.995 19.6976 249.449 19.0551C249.915 18.4001 250.167 17.5624 250.204 16.5421C250.216 16.4161 250.222 16.2398 250.222 16.013C250.222 14.8415 250.001 13.8842 249.559 13.1409C249.117 12.3851 248.356 12.0072 247.276 12.0072C246.307 12.0072 245.576 12.341 245.086 13.0087C244.595 13.6637 244.331 14.4384 244.294 15.3328L244.275 16.0697L244.294 16.8066C244.306 17.3483 244.423 17.8647 244.644 18.356C244.865 18.8347 245.196 19.2315 245.638 19.5464C246.08 19.8613 246.626 20.0188 247.276 20.0188Z" fill="white"/>
<path d="M254.255 20.9258C254.132 20.9258 254.034 20.888 253.96 20.8124C253.887 20.7368 253.85 20.636 253.85 20.5101V11.516C253.85 11.39 253.887 11.2892 253.96 11.2136C254.034 11.138 254.132 11.1003 254.255 11.1003H254.568C254.691 11.1003 254.789 11.138 254.863 11.2136C254.936 11.2892 254.973 11.39 254.973 11.516V14.388H256.998C259.318 14.388 260.478 15.5028 260.478 17.7325C260.478 18.841 260.171 19.6535 259.557 20.17C258.956 20.6738 258.011 20.9258 256.722 20.9258H254.255ZM262.282 20.9258C262.159 20.9258 262.061 20.888 261.987 20.8124C261.914 20.7368 261.877 20.636 261.877 20.5101V11.516C261.877 11.39 261.914 11.2892 261.987 11.2136C262.061 11.138 262.159 11.1003 262.282 11.1003H262.595C262.718 11.1003 262.816 11.138 262.89 11.2136C262.963 11.2892 263 11.39 263 11.516V20.5101C263 20.636 262.963 20.7368 262.89 20.8124C262.816 20.888 262.718 20.9258 262.595 20.9258H262.282ZM256.888 19.8298C257.759 19.8298 258.385 19.6724 258.766 19.3575C259.158 19.0425 259.355 18.5009 259.355 17.7325C259.355 16.9641 259.158 16.3972 258.766 16.0319C258.385 15.6666 257.759 15.4839 256.888 15.4839H254.973V19.8298H256.888Z" fill="white"/>
<path d="M68.2566 43C66.3125 43 64.8014 42.4377 63.7232 41.313C62.6628 40.1884 62.0972 38.6919 62.0265 36.8235L62 35.6535L62.0265 34.4836C62.0972 32.6333 62.6716 31.1459 63.7497 30.0213C64.8279 28.8785 66.3302 28.3071 68.2566 28.3071C70.1831 28.3071 71.6854 28.8785 72.7636 30.0213C73.8417 31.1459 74.4161 32.6333 74.4868 34.4836C74.5045 34.6831 74.5133 35.0731 74.5133 35.6535C74.5133 36.234 74.5045 36.624 74.4868 36.8235C74.4161 38.6919 73.8417 40.1884 72.7636 41.313C71.7031 42.4377 70.2008 43 68.2566 43ZM68.2566 40.9049C69.3701 40.9049 70.245 40.5421 70.8813 39.8165C71.5352 39.091 71.8887 38.048 71.9417 36.6875C71.9594 36.5061 71.9682 36.1615 71.9682 35.6535C71.9682 35.1456 71.9594 34.801 71.9417 34.6196C71.8887 33.2592 71.5352 32.2161 70.8813 31.4906C70.245 30.765 69.3701 30.4022 68.2566 30.4022C67.1432 30.4022 66.2595 30.765 65.6055 31.4906C64.9516 32.2161 64.6069 33.2592 64.5716 34.6196L64.5451 35.6535L64.5716 36.6875C64.6069 38.048 64.9516 39.091 65.6055 39.8165C66.2595 40.5421 67.1432 40.9049 68.2566 40.9049Z" fill="white"/>
<path d="M78.4427 42.7279C78.266 42.7279 78.1158 42.6735 77.9921 42.5647C77.886 42.4377 77.833 42.2835 77.833 42.1021V29.205C77.833 29.0236 77.886 28.8785 77.9921 28.7697C78.1158 28.6427 78.266 28.5792 78.4427 28.5792H88.9677C89.1444 28.5792 89.2858 28.6427 89.3919 28.7697C89.5156 28.8785 89.5775 29.0236 89.5775 29.205V42.1021C89.5775 42.2835 89.5156 42.4377 89.3919 42.5647C89.2858 42.6735 89.1444 42.7279 88.9677 42.7279H87.6952C87.5184 42.7279 87.377 42.6735 87.271 42.5647C87.1649 42.4377 87.1119 42.2835 87.1119 42.1021V30.7559H80.325V42.1021C80.325 42.2835 80.2632 42.4377 80.1395 42.5647C80.0334 42.6735 79.892 42.7279 79.7153 42.7279H78.4427Z" fill="white"/>
<path d="M97.7375 42.7279C97.5608 42.7279 97.4106 42.6735 97.2868 42.5647C97.1808 42.4377 97.1278 42.2835 97.1278 42.1021V30.7559H92.5148C92.3381 30.7559 92.1878 30.7015 92.0641 30.5927C91.9581 30.4657 91.9051 30.3115 91.9051 30.1301V29.205C91.9051 29.0236 91.9581 28.8785 92.0641 28.7697C92.1878 28.6427 92.3381 28.5792 92.5148 28.5792H104.18C104.356 28.5792 104.498 28.6427 104.604 28.7697C104.728 28.8785 104.79 29.0236 104.79 29.205V30.1301C104.79 30.3115 104.728 30.4657 104.604 30.5927C104.498 30.7015 104.356 30.7559 104.18 30.7559H99.5668V42.1021C99.5668 42.2835 99.5138 42.4377 99.4077 42.5647C99.3017 42.6735 99.1603 42.7279 98.9836 42.7279H97.7375Z" fill="white"/>
<path d="M112.735 43C110.791 43 109.28 42.4377 108.202 41.313C107.142 40.1884 106.576 38.6919 106.505 36.8235L106.479 35.6535L106.505 34.4836C106.576 32.6333 107.15 31.1459 108.229 30.0213C109.307 28.8785 110.809 28.3071 112.735 28.3071C114.662 28.3071 116.164 28.8785 117.242 30.0213C118.32 31.1459 118.895 32.6333 118.966 34.4836C118.983 34.6831 118.992 35.0731 118.992 35.6535C118.992 36.234 118.983 36.624 118.966 36.8235C118.895 38.6919 118.32 40.1884 117.242 41.313C116.182 42.4377 114.68 43 112.735 43ZM112.735 40.9049C113.849 40.9049 114.724 40.5421 115.36 39.8165C116.014 39.091 116.367 38.048 116.42 36.6875C116.438 36.5061 116.447 36.1615 116.447 35.6535C116.447 35.1456 116.438 34.801 116.42 34.6196C116.367 33.2592 116.014 32.2161 115.36 31.4906C114.724 30.765 113.849 30.4022 112.735 30.4022C111.622 30.4022 110.738 30.765 110.084 31.4906C109.43 32.2161 109.086 33.2592 109.05 34.6196L109.024 35.6535L109.05 36.6875C109.086 38.048 109.43 39.091 110.084 39.8165C110.738 40.5421 111.622 40.9049 112.735 40.9049Z" fill="white"/>
<path d="M135.885 28.5792C136.027 28.5792 136.151 28.6336 136.257 28.7424C136.363 28.8331 136.416 28.951 136.416 29.0962V42.1293C136.416 42.3107 136.363 42.4558 136.257 42.5647C136.151 42.6735 136.018 42.7279 135.859 42.7279H134.56C134.383 42.7279 134.242 42.6735 134.136 42.5647C134.03 42.4558 133.977 42.3107 133.977 42.1293V33.1775L130.583 39.7621C130.46 39.9979 130.336 40.1793 130.212 40.3063C130.106 40.4151 129.938 40.4696 129.708 40.4696H129.019C128.807 40.4696 128.639 40.4151 128.515 40.3063C128.409 40.1975 128.286 40.0161 128.144 39.7621L124.777 33.3408V42.1293C124.777 42.3107 124.724 42.4558 124.618 42.5647C124.512 42.6735 124.371 42.7279 124.194 42.7279H122.895C122.718 42.7279 122.577 42.6735 122.471 42.5647C122.365 42.4558 122.312 42.3107 122.312 42.1293V29.0962C122.312 28.9692 122.365 28.8513 122.471 28.7424C122.577 28.6336 122.701 28.5792 122.842 28.5792H124.194C124.459 28.5792 124.68 28.7243 124.857 29.0145L129.364 37.667L133.897 29.0145C134.039 28.7243 134.259 28.5792 134.56 28.5792H135.885Z" fill="white"/>
</g>
<path d="M55.3217 45.1225L43.1107 30.1784C41.3917 28.1406 40.0165 27.6911 38.0752 27.5748C36.1968 27.4645 34.4342 28.0914 32.8493 29.4292C30.5756 31.3471 28.2836 34.2467 27.7575 34.9432L26.6504 36.2833C26.6356 36.3001 26.6207 36.3169 26.6069 36.3349L24.6025 38.8473L19.1234 45.8693C18.7367 46.3628 18.2508 46.7611 17.7001 47.0357C17.1493 47.3102 16.5475 47.4543 15.9375 47.4575L4.96199 47.5163C4.80495 47.5186 4.65072 47.4726 4.51841 47.3841C4.38612 47.2956 4.28157 47.1684 4.21775 47.0183C4.15393 46.8681 4.13364 46.7017 4.15939 46.5397C4.18514 46.3776 4.25581 46.2271 4.36263 46.1067L18.4197 30.0046L18.4484 29.971L21.9243 26.333C22.0366 26.2173 22.122 26.0762 22.1741 25.9205C22.2261 25.7649 22.2434 25.5988 22.2245 25.4351C22.1831 25.1036 22.0651 24.7876 21.8807 24.5145C21.8658 24.4882 21.2527 23.7198 21.2275 23.6875L18.2639 20.029C18.2557 20.017 18.2465 20.0058 18.2364 19.9955L4.07154 3.77352C3.97481 3.66293 3.91102 3.52523 3.88796 3.37729C3.8649 3.22936 3.88357 3.0776 3.94171 2.9406C3.99984 2.8036 4.0949 2.6873 4.21526 2.60594C4.33561 2.52458 4.47603 2.48169 4.61934 2.48252L16.1128 2.54485C16.6093 2.54735 17.0992 2.66446 17.5476 2.88782C17.9958 3.11119 18.3915 3.43531 18.7062 3.83705L26.27 13.4901L26.2643 13.4925L27.2063 14.8231L27.283 14.9238C27.8893 15.6969 30.0714 18.3868 32.6533 20.5661C34.1213 21.8043 35.7396 22.4324 37.4666 22.4324C37.6041 22.4324 37.7439 22.4324 37.8838 22.4204C38.8504 22.3665 39.7962 22.1066 40.6633 21.6566C41.5304 21.2066 42.3005 20.5761 42.9262 19.8037L55.1337 4.87751C55.4849 4.45073 55.7113 3.92726 55.7859 3.36957C55.8604 2.81188 55.78 2.24353 55.5542 1.73234C55.3284 1.22115 54.9667 0.788722 54.5123 0.486655C54.058 0.184589 53.5301 0.0256458 52.9918 0.0287951L38.5049 0.0671542C38.2696 0.0674858 38.037 0.119761 37.8223 0.220562C37.6077 0.321363 37.4158 0.46842 37.2592 0.652118L27.9077 11.5746C27.9027 11.5807 27.8965 11.5856 27.8896 11.5889C27.8827 11.5922 27.8752 11.594 27.8675 11.594C27.8599 11.594 27.8524 11.5922 27.8455 11.5889C27.8385 11.5856 27.8324 11.5807 27.8274 11.5746L19.8121 1.35455C19.5023 0.959351 19.1129 0.640482 18.6718 0.420654C18.2306 0.200825 17.7486 0.0854467 17.2599 0.0827381L1.91816 2.76006e-05C1.54725 -0.00201231 1.18381 0.109063 0.872304 0.319667C0.560801 0.530272 0.314733 0.831276 0.164203 1.18585C0.0136727 1.54043 -0.0347933 1.93321 0.0247359 2.31615C0.0842649 2.69908 0.249207 3.05556 0.499384 3.34199L16.9712 22.2095C17.0858 22.3413 18.8151 24.433 19.3125 25.0647C19.3343 25.0923 19.5417 25.3501 19.5176 25.3716C18.8919 25.8655 17.2657 27.6671 17.1534 27.7954L0.707963 46.6317C0.455721 46.9204 0.28941 47.2796 0.22938 47.6656C0.16935 48.0517 0.218206 48.4476 0.369969 48.805C0.521732 49.1624 0.769817 49.4658 1.08387 49.6781C1.39792 49.8903 1.7643 50.0021 2.1382 50L17.0583 49.9197C17.6683 49.9162 18.27 49.772 18.8207 49.4975C19.3713 49.2229 19.8574 48.8248 20.2442 48.3314L21.5747 46.6005C21.5797 46.5937 21.5861 46.5882 21.5935 46.5845C21.6008 46.5807 21.6089 46.5788 21.6172 46.5789L35.1723 46.6988C35.1797 46.6988 35.1871 46.7005 35.1938 46.7038C35.2006 46.7071 35.2065 46.7119 35.2112 46.718L37.4449 49.3551L37.4998 49.3036C37.4866 49.3193 37.4793 49.3395 37.4793 49.3605C37.4793 49.3814 37.4866 49.4017 37.4998 49.4174C37.6563 49.5811 37.8421 49.711 38.0467 49.7994C38.2512 49.8879 38.4704 49.9333 38.6917 49.9329L53.1797 49.9664C53.5857 49.9727 53.9879 49.8852 54.3578 49.7102C54.7276 49.5351 55.056 49.2767 55.3193 48.9535C56.2453 47.7752 56.2075 46.2073 55.3217 45.1225ZM38.145 3.31442C38.356 3.0677 38.6141 2.87018 38.9028 2.7347C39.1915 2.59922 39.5042 2.52882 39.8205 2.52807L52.9998 2.49691C53.0859 2.49669 53.1703 2.5223 53.2429 2.57072C53.3156 2.61914 53.3734 2.68833 53.4096 2.77008C53.4458 2.85184 53.4588 2.94273 53.4471 3.03198C53.4354 3.12124 53.3995 3.20511 53.3436 3.27366L41.1362 18.2046C40.7161 18.7239 40.199 19.1479 39.6167 19.4507C39.0344 19.7535 38.3991 19.9287 37.7497 19.9655C36.4776 20.0398 35.2605 19.6058 34.1386 18.6541C31.9967 16.8465 30.1378 14.6457 29.3505 13.6699C29.342 13.6599 29.3372 13.6468 29.3372 13.6334C29.3372 13.6199 29.342 13.6069 29.3505 13.5968L38.145 3.31442ZM23.531 44.0592L27.9833 38.2624C27.9882 38.2561 27.9944 38.251 28.0015 38.2476C28.0085 38.2441 28.0162 38.2423 28.024 38.2423C28.0317 38.2423 28.0394 38.2441 28.0465 38.2476C28.0535 38.251 28.0597 38.2561 28.0647 38.2624L32.965 44.0592C32.972 44.0672 32.9766 44.0771 32.9782 44.0878C32.9798 44.0985 32.9784 44.1094 32.9741 44.1192C32.9698 44.129 32.9629 44.1374 32.9542 44.1431C32.9454 44.1488 32.9352 44.1518 32.9249 44.1516H23.5722C23.5618 44.1521 23.5515 44.1493 23.5426 44.1437C23.5336 44.138 23.5265 44.1297 23.5221 44.1198C23.5177 44.11 23.5162 44.0989 23.5178 44.0881C23.5193 44.0773 23.524 44.0673 23.531 44.0592ZM53.5934 47.2322C53.5595 47.3153 53.5024 47.3858 53.4296 47.4345C53.3569 47.4833 53.2718 47.508 53.1855 47.5055L40.3294 47.6745C39.9707 47.6793 39.6151 47.6045 39.286 47.455C38.9569 47.3057 38.6618 47.0851 38.4201 46.8079L29.4559 36.5374V36.4451C30.1859 35.5329 32.1055 33.2314 34.3311 31.3531C35.4519 30.4073 36.6701 29.9674 37.9422 30.0417C39.3083 30.1233 40.0887 30.3246 41.3276 31.7978L53.5281 46.7263C53.5863 46.7936 53.6236 46.8777 53.6353 46.9675C53.6469 47.0573 53.6323 47.1488 53.5934 47.2298V47.2322Z" fill="#FF3A51"/>
<defs>
<filter id="filter0_d_480_231" x="58" y="7" width="209" height="44" filterUnits="userSpaceOnUse" color-interpolation-filters="sRGB">
<feFlood flood-opacity="0" result="BackgroundImageFix"/>
<feColorMatrix in="SourceAlpha" type="matrix" values="0 0 0 0 0 0 0 0 0 0 0 0 0 0 0 0 0 0 127 0" result="hardAlpha"/>
<feOffset dy="4"/>
<feGaussianBlur stdDeviation="2"/>
<feComposite in2="hardAlpha" operator="out"/>
<feColorMatrix type="matrix" values="0 0 0 0 0 0 0 0 0 0 0 0 0 0 0 0 0 0 0.25 0"/>
<feBlend mode="normal" in2="BackgroundImageFix" result="effect1_dropShadow_480_231"/>
<feBlend mode="normal" in="SourceGraphic" in2="effect1_dropShadow_480_231" result="shape"/>
</filter>
</defs>
</svg>
