<svg width="26" height="26" viewBox="0 0 26 26" fill="none" xmlns="http://www.w3.org/2000/svg">
<path fill-rule="evenodd" clip-rule="evenodd" d="M13 1C11.7118 1 10.4518 1.36106 9.37919 2.03859C8.30644 2.7162 7.46895 3.68023 6.97403 4.80975C6.47909 5.93934 6.34945 7.18279 6.60189 8.3825C6.85431 9.58217 7.47716 10.683 8.39028 11.5462C9.30329 12.4093 10.4654 12.9961 11.7291 13.2337C12.9927 13.4713 14.3025 13.3494 15.4934 12.8831C16.6845 12.4167 17.704 11.6263 18.422 10.6105C19.14 9.59465 19.5238 8.39941 19.5238 7.17601C19.5238 5.53529 18.8343 3.96344 17.6097 2.80583C16.3855 1.64852 14.7271 1 13 1ZM13 11.3538C12.122 11.3538 11.2645 11.1076 10.536 10.6474C9.80763 10.1873 9.24133 9.53434 8.90729 8.77196C8.57327 8.00965 8.48601 7.1713 8.65618 6.36258C8.82635 5.55382 9.24661 4.80978 9.86522 4.22499C10.4839 3.6401 11.2734 3.24076 12.1342 3.07888C12.9952 2.91699 13.8875 3.00016 14.6978 3.31748C15.5081 3.63476 16.1991 4.17144 16.6846 4.8583C17.17 5.54508 17.4286 6.35163 17.4286 7.17601C17.4286 8.28127 16.9642 9.34294 16.1348 10.127C15.305 10.9114 14.1776 11.3538 13 11.3538Z" fill="white"/>
<path d="M23.9524 25C24.531 25 25 24.5694 25 24.0383V24.0009C25 21.6736 24.022 19.4434 22.2839 17.8004C20.5462 16.1576 18.1914 15.2364 15.7381 15.2364H10.2619C7.80859 15.2364 5.45377 16.1576 3.71606 17.8004C1.97803 19.4434 1 21.6736 1 24.0009V24.0383C1 24.5694 1.46903 25 2.04762 25C2.6262 25 3.09524 24.5694 3.09524 24.0383V24.0009C3.09524 22.2091 3.84807 20.4891 5.191 19.2195C6.53424 17.9497 8.3581 17.2347 10.2619 17.2347H15.7381C17.6419 17.2347 19.4658 17.9497 20.809 19.2195C22.1519 20.4891 22.9048 22.2091 22.9048 24.0009V24.0383C22.9048 24.5694 23.3738 25 23.9524 25Z" fill="white"/>
<path fill-rule="evenodd" clip-rule="evenodd" d="M13 1C11.7118 1 10.4518 1.36106 9.37919 2.03859C8.30644 2.7162 7.46895 3.68023 6.97403 4.80975C6.47909 5.93934 6.34945 7.18279 6.60189 8.3825C6.85431 9.58217 7.47716 10.683 8.39028 11.5462C9.30329 12.4093 10.4654 12.9961 11.7291 13.2337C12.9927 13.4713 14.3025 13.3494 15.4934 12.8831C16.6845 12.4167 17.704 11.6263 18.422 10.6105C19.14 9.59465 19.5238 8.39941 19.5238 7.17601C19.5238 5.53529 18.8343 3.96344 17.6097 2.80583C16.3855 1.64852 14.7271 1 13 1ZM13 11.3538C12.122 11.3538 11.2645 11.1076 10.536 10.6474C9.80763 10.1873 9.24133 9.53434 8.90729 8.77196C8.57327 8.00965 8.48601 7.1713 8.65618 6.36258C8.82635 5.55382 9.24661 4.80978 9.86522 4.22499C10.4839 3.6401 11.2734 3.24076 12.1342 3.07888C12.9952 2.91699 13.8875 3.00016 14.6978 3.31748C15.5081 3.63476 16.1991 4.17144 16.6846 4.8583C17.17 5.54508 17.4286 6.35163 17.4286 7.17601C17.4286 8.28127 16.9642 9.34294 16.1348 10.127C15.305 10.9114 14.1776 11.3538 13 11.3538Z" stroke="white" stroke-width="0.1"/>
<path d="M23.9524 25C24.531 25 25 24.5694 25 24.0383V24.0009C25 21.6736 24.022 19.4434 22.2839 17.8004C20.5462 16.1576 18.1914 15.2364 15.7381 15.2364H10.2619C7.80859 15.2364 5.45377 16.1576 3.71606 17.8004C1.97803 19.4434 1 21.6736 1 24.0009V24.0383C1 24.5694 1.46903 25 2.04762 25C2.6262 25 3.09524 24.5694 3.09524 24.0383V24.0009C3.09524 22.2091 3.84807 20.4891 5.191 19.2195C6.53424 17.9497 8.3581 17.2347 10.2619 17.2347H15.7381C17.6419 17.2347 19.4658 17.9497 20.809 19.2195C22.1519 20.4891 22.9048 22.2091 22.9048 24.0009V24.0383C22.9048 24.5694 23.3738 25 23.9524 25Z" stroke="white" stroke-width="0.1"/>
</svg>
