<svg width="44" height="32" viewBox="0 0 44 32" fill="none" xmlns="http://www.w3.org/2000/svg">
<path d="M37 29C37 30.6569 35.6569 32 34 32C32.3431 32 31 30.6569 31 29C31 27.3431 32.3431 26 34 26C35.6569 26 37 27.3431 37 29Z" fill="white"/>
<path d="M18 29C18 30.6569 16.6569 32 15 32C13.3431 32 12 30.6569 12 29C12 27.3431 13.3431 26 15 26C16.6569 26 18 27.3431 18 29Z" fill="white"/>
<path d="M1.91116 3.74468H5.62182L11.1547 21.1809C11.2343 21.5319 11.4682 21.8342 11.8564 22.0878C12.2446 22.3413 12.6279 22.4681 13.0061 22.4681H36.6053C37.0632 22.4681 37.4614 22.3462 37.7998 22.1024C38.1382 21.8586 38.3572 21.5514 38.4568 21.1809L43.8702 10.1809C44.0692 9.45922 44.0394 8.83023 43.7806 8.29388C43.5218 7.75754 43.1137 7.48936 42.5562 7.48936H41.9889C41.6106 7.48936 41.2572 7.62101 40.9288 7.88431C40.6003 8.14761 40.3863 8.46454 40.2867 8.83511L35.6497 18.7234H14.4166L8.61497 1.31649C8.51543 0.945922 8.31635 0.633865 8.01773 0.380319C7.71911 0.126773 7.39063 0 7.03229 0H1.91116C1.37365 0 0.920742 0.185284 0.552444 0.555851C0.184147 0.926419 0 1.37012 0 1.88697C0 2.40381 0.184147 2.84264 0.552444 3.20346C0.920742 3.56427 1.37365 3.74468 1.91116 3.74468Z" fill="white"/>
</svg>
