<svg width="26" height="23" viewBox="0 0 26 23" fill="none" xmlns="http://www.w3.org/2000/svg">
<path d="M25.3131 0.430209C25.0462 0.214889 24.7243 0.0738776 24.3817 0.0221251C24.039 -0.0296274 23.6884 0.00980786 23.3669 0.13625L1.18423 8.85021C0.825775 8.99355 0.520594 9.23959 0.309206 9.55566C0.097818 9.87174 -0.00977909 10.2429 0.000698575 10.6199C0.0111762 10.9969 0.139233 11.3618 0.367869 11.6663C0.596505 11.9708 0.914906 12.2004 1.2808 12.3247L6.06721 13.9415L8.66099 22.2856C8.66594 22.3024 8.68203 22.3133 8.68946 22.329C8.71619 22.3955 8.75521 22.4568 8.8046 22.5097C8.87965 22.5912 8.97653 22.6509 9.08441 22.6819C9.09679 22.6868 9.10546 22.6976 9.11784 22.7H9.12527L9.12898 22.7012C9.22476 22.7213 9.32429 22.7163 9.41745 22.6868C9.42736 22.6844 9.43726 22.6844 9.4484 22.6807C9.53785 22.6502 9.61879 22.5999 9.68488 22.5338C9.69231 22.5253 9.70469 22.5241 9.71212 22.5169L13.4424 18.5099L18.8863 22.6121C19.2168 22.8639 19.6242 23 20.0439 23C20.9526 23 21.7363 22.3808 21.9233 21.517L25.9619 2.21926C26.0304 1.89166 26.0062 1.55211 25.892 1.23682C25.7777 0.921531 25.5777 0.642333 25.3131 0.429004V0.430209ZM10.0142 15.5257L9.13888 19.6665L7.31272 13.7897L16.3693 9.19959L10.1826 15.2209C10.0969 15.3042 10.0384 15.4102 10.0142 15.5257V15.5257ZM20.71 21.2748C20.6867 21.384 20.635 21.4856 20.5598 21.5698C20.4845 21.654 20.3883 21.7179 20.2803 21.7555C20.175 21.7949 20.061 21.807 19.9494 21.7905C19.8378 21.7741 19.7325 21.7296 19.644 21.6615L13.747 17.2172C13.6237 17.1246 13.4691 17.0806 13.314 17.094C13.1589 17.1074 13.0147 17.1772 12.9101 17.2895L10.3138 20.0737L11.1879 15.945L20.0884 7.28283C20.1927 7.18107 20.2561 7.0464 20.2673 6.90314C20.2784 6.75987 20.2366 6.61744 20.1493 6.50155C20.0621 6.38566 19.9351 6.30393 19.7913 6.27113C19.6476 6.23832 19.4965 6.25659 19.3654 6.32264L6.53521 12.8259L1.68566 11.185C1.55707 11.1437 1.44493 11.0644 1.36482 10.9582C1.28471 10.8519 1.24063 10.724 1.23871 10.5923C1.23254 10.4594 1.26904 10.3279 1.34314 10.216C1.41723 10.1042 1.52526 10.0176 1.65223 9.96822L23.8312 1.25426C23.9448 1.20727 24.0697 1.19207 24.1917 1.21038C24.3138 1.22868 24.4282 1.27976 24.522 1.35787C24.6153 1.43134 24.6858 1.52861 24.7256 1.63881C24.7654 1.74901 24.7729 1.86781 24.7473 1.98193L20.71 21.276V21.2748Z" fill="white"/>
</svg>
